<?xml version="1.0" encoding="UTF-8" standalone="no"?>
<svg
   xmlns:dc="http://purl.org/dc/elements/1.1/"
   xmlns:cc="http://creativecommons.org/ns#"
   xmlns:rdf="http://www.w3.org/1999/02/22-rdf-syntax-ns#"
   xmlns:svg="http://www.w3.org/2000/svg"
   xmlns="http://www.w3.org/2000/svg"
   xmlns:sodipodi="http://sodipodi.sourceforge.net/DTD/sodipodi-0.dtd"
   xmlns:inkscape="http://www.inkscape.org/namespaces/inkscape"
   width="5064.937"
   height="718.10144"
   version="1.1"
   viewBox="0 0 5064.9372 718.10146"
   id="svg839"
   sodipodi:docname="zenoh-dissector.svg"
   inkscape:version="1.0.1 (c497b03c, 2020-09-10)">
  <defs
     id="defs843" />
  <sodipodi:namedview
     pagecolor="#ffffff"
     bordercolor="#666666"
     borderopacity="1"
     objecttolerance="10"
     gridtolerance="10"
     guidetolerance="10"
     inkscape:pageopacity="0"
     inkscape:pageshadow="2"
     inkscape:window-width="1920"
     inkscape:window-height="968"
     id="namedview841"
     showgrid="false"
     inkscape:zoom="0.1349819"
     inkscape:cx="1217.6731"
     inkscape:cy="841.44141"
     inkscape:window-x="0"
     inkscape:window-y="25"
     inkscape:window-maximized="0"
     inkscape:current-layer="g837" />
  <metadata
     id="metadata833">
    <rdf:RDF>
      <cc:Work
         rdf:about="">
        <dc:format>image/svg+xml</dc:format>
        <dc:type
           rdf:resource="http://purl.org/dc/dcmitype/StillImage" />
        <dc:title />
      </cc:Work>
    </rdf:RDF>
  </metadata>
  <g
     fill="#aaaaaa"
     id="g837"
     transform="translate(913.0331,-26.055641)">
    <path
       id="path835"
       style="fill:none;stroke:#000000;stroke-width:20;stroke-miterlimit:4;stroke-dasharray:none;stroke-opacity:1"
       d="m 291.16602,267.98438 c 1.8481,0 6.43931,14.22425 8.60351,26.65624 1.3812,7.9342 1.84759,15.6848 1.36719,22.7168 -1.9184,28.079 -12.20091,46.92624 -30.00391,54.99024 -7.2678,3.2919 -9.85287,3.73461 -23.23047,3.97851 -16.76,0.3056 -23.9215,-0.35243 -23.3125,-2.14062 0.22366,-0.65686 3.60613,-5.30437 7.51563,-10.32617 5.8607,-7.5286 7.5118,-8.9155 9.4043,-7.9004 3.4652,1.8587 11.28165,1.47947 15.59765,-0.75781 7.6063,-3.9423 10.18381,-15.73948 5.2207,-23.89648 l -2.57812,-4.23828 7.90234,-12.16016 c 8.9505,-13.767 20.3591,-36.27516 21.6211,-42.66016 0.46345,-2.345 1.31438,-4.26171 1.89258,-4.26171 v 0"
       sodipodi:nodetypes="csccsscsccccssc" />
    <path
       id="path883"
       style="fill:none;stroke:#000000;stroke-width:20;stroke-miterlimit:4;stroke-dasharray:none;stroke-opacity:1"
       d="m 4136.4552,734.12354 c 25.3544,-0.16258 -30.2329,-0.36358 -63.6681,-0.57779 -116.4945,-0.74635 -1168.0773,-1.65301 -1168.0773,-1.65301 -58.7804,-149.14781 -136.0313,-387.21791 -3.4341,-678.394285 8.5658,-18.810048 1.2689,-18.123025 -10.8125,-16.927481 -399.6364,22.76629 -555.1693,352.316966 -615.3768,696.373306 L 899.26126,732.28893 C 899.20397,517.97979 797.16547,189.71449 628.08785,174.44922 c -18.204,-3.1391 -54.44206,-3.14222 -71.53906,-0.008 -14.584,2.6742 -17.16367,2.01791 -20.13867,-5.11719 -1.0189,-2.444 -1.85352,-8.56456 -1.85352,-13.60156 0,-16.399 8.04245,-36.02027 21.18945,-51.69727 l 5.30469,-6.326171 -9.64648,0.875 c -26.882,2.435701 -49.81453,9.268931 -79.01953,23.548831 -31.128,15.221 -62.73086,36.74972 -94.88086,64.63672 -8.1154,7.0395 -15.93396,13.66084 -17.37696,14.71484 -2.4701,1.8051 -2.56407,1.7318 -1.60937,-1.2832 1.653,-5.2202 1.24797,-83.06724 -0.52539,-100.990238 -3.54266,-24.273192 -4.69514,-40.100731 -9.57227,-58.310547 l -2.84957,-11.87481 -0.99414,5.904297 c -0.54685,3.2469 -2.17289,13.593687 -3.80664,22.958984 -1.29601,7.429245 -3.45158,17.632666 -4.20898,22.175782 -12.405,58.093002 -35.59566,114.689452 -67.34766,163.939452 -4.5905,7.1209 -8.55404,12.72694 -8.80664,12.46094 -0.88834,-0.93603 -8.58225,-50.54022 -10.65625,-68.69922 -1.1535,-10.101 -2.48358,-31.94602 -2.95508,-48.54102 l -0.85742,-30.17382 -4.95117,6.56054 c -11.395,15.093 -22.1515,42.22152 -31.0625,78.35352 -3.7545,15.223 -19.61328,106.62906 -19.61328,113.03906 0,4.4406 -45.22152,-8.12044 -69.85352,-19.40234 l -7.67969,-3.51758 4.23438,7.5957 c 12.018,21.555 36.84225,50.17221 57.28125,66.0332 l 4.27344,3.31446 -5.19141,37.99804 c -2.855,20.89801 -7.91353,57.47807 -11.24023,81.28907 -6.286,44.986 -6.45174,49.1972 -2.55274,64.2832 7.9946,30.933 32.56241,58.56427 60.45313,50.50781 h 6.92382 l 0.0234,-5.57617 c 0.0556,-13.616 8.70639,-38.77161 16.02539,-46.59961 1.5325,-1.6392 37.93267,-28.45765 80.88867,-59.59765 l 78.10157,-56.61719 -3.79493,-5.99805 c -8.91509,-14.082 -11.62485,-36.09341 -6.22265,-50.56641 7.6279,-20.434 33.83211,-33.42314 64.03711,-31.74414 26.943,1.498 46.97825,14.60579 58.15625,38.05079 7.9779,16.733 9.21283,23.56056 9.17773,50.72656 -0.036,27.905 -2.00639,41.36775 -9.21289,62.96875 -9.1437,27.408 -22.57139,48.13287 -47.65039,73.54687 -18.779,19.031 -38.14867,34.77578 -75.26367,61.17578 -44.61758,33.46616 -92.39542,71.33006 -124.72656,108.86915 -92.03321,0.19644 -1250.16058,-2.53413 -1173.83844,-2.53413"
       sodipodi:nodetypes="csssccccccsccccccsccccsccccccccscccccccssccscccccssscccc" />
  </g>
</svg>
